<svg width="294" height="64" viewBox="0 0 294 64" fill="none" xmlns="http://www.w3.org/2000/svg">
<path d="M0.3125 35.0938L9.3125 34.2188C9.85417 37.2396 10.9479 39.4583 12.5938 40.875C14.2604 42.2917 16.5 43 19.3125 43C22.2917 43 24.5312 42.375 26.0312 41.125C27.5521 39.8542 28.3125 38.375 28.3125 36.6875C28.3125 35.6042 27.9896 34.6875 27.3438 33.9375C26.7188 33.1667 25.6146 32.5 24.0312 31.9375C22.9479 31.5625 20.4792 30.8958 16.625 29.9375C11.6667 28.7083 8.1875 27.1979 6.1875 25.4062C3.375 22.8854 1.96875 19.8125 1.96875 16.1875C1.96875 13.8542 2.625 11.6771 3.9375 9.65625C5.27083 7.61458 7.17708 6.0625 9.65625 5C12.1562 3.9375 15.1667 3.40625 18.6875 3.40625C24.4375 3.40625 28.7604 4.66667 31.6562 7.1875C34.5729 9.70833 36.1042 13.0729 36.25 17.2812L27 17.6875C26.6042 15.3333 25.75 13.6458 24.4375 12.625C23.1458 11.5833 21.1979 11.0625 18.5938 11.0625C15.9062 11.0625 13.8021 11.6146 12.2812 12.7188C11.3021 13.4271 10.8125 14.375 10.8125 15.5625C10.8125 16.6458 11.2708 17.5729 12.1875 18.3438C13.3542 19.3229 16.1875 20.3438 20.6875 21.4062C25.1875 22.4688 28.5104 23.5729 30.6562 24.7188C32.8229 25.8438 34.5104 27.3958 35.7188 29.375C36.9479 31.3333 37.5625 33.7604 37.5625 36.6562C37.5625 39.2812 36.8333 41.7396 35.375 44.0312C33.9167 46.3229 31.8542 48.0312 29.1875 49.1562C26.5208 50.2604 23.1979 50.8125 19.2188 50.8125C13.4271 50.8125 8.97917 49.4792 5.875 46.8125C2.77083 44.125 0.916667 40.2188 0.3125 35.0938ZM49.2837 26.9375L41.315 25.5C42.2108 22.2917 43.7525 19.9167 45.94 18.375C48.1275 16.8333 51.3775 16.0625 55.69 16.0625C59.6067 16.0625 62.5233 16.5312 64.44 17.4688C66.3567 18.3854 67.7004 19.5625 68.4712 21C69.2629 22.4167 69.6587 25.0312 69.6587 28.8438L69.565 39.0938C69.565 42.0104 69.7004 44.1667 69.9712 45.5625C70.2629 46.9375 70.7942 48.4167 71.565 50H62.8775C62.6483 49.4167 62.3671 48.5521 62.0337 47.4062C61.8879 46.8854 61.7837 46.5417 61.7212 46.375C60.2212 47.8333 58.6171 48.9271 56.9087 49.6562C55.2004 50.3854 53.3775 50.75 51.44 50.75C48.0233 50.75 45.3254 49.8229 43.3462 47.9688C41.3879 46.1146 40.4087 43.7708 40.4087 40.9375C40.4087 39.0625 40.8567 37.3958 41.7525 35.9375C42.6483 34.4583 43.8983 33.3333 45.5025 32.5625C47.1275 31.7708 49.4608 31.0833 52.5025 30.5C56.6067 29.7292 59.4504 29.0104 61.0337 28.3438V27.4688C61.0337 25.7812 60.6171 24.5833 59.7837 23.875C58.9504 23.1458 57.3775 22.7812 55.065 22.7812C53.5025 22.7812 52.2837 23.0938 51.4087 23.7188C50.5337 24.3229 49.8254 25.3958 49.2837 26.9375ZM61.0337 34.0625C59.9087 34.4375 58.1275 34.8854 55.69 35.4062C53.2525 35.9271 51.6587 36.4375 50.9087 36.9375C49.7629 37.75 49.19 38.7812 49.19 40.0312C49.19 41.2604 49.6483 42.3229 50.565 43.2188C51.4817 44.1146 52.6483 44.5625 54.065 44.5625C55.6483 44.5625 57.1587 44.0417 58.5962 43C59.6587 42.2083 60.3567 41.2396 60.69 40.0938C60.9192 39.3438 61.0337 37.9167 61.0337 35.8125V34.0625ZM75.7862 12.3125V4.1875H84.5675V12.3125H75.7862ZM75.7862 50V16.8125H84.5675V50H75.7862ZM90.2262 52.1875L100.257 53.4062C100.424 54.5729 100.81 55.375 101.414 55.8125C102.247 56.4375 103.56 56.75 105.351 56.75C107.643 56.75 109.362 56.4062 110.507 55.7188C111.278 55.2604 111.862 54.5208 112.257 53.5C112.528 52.7708 112.664 51.4271 112.664 49.4688V44.625C110.039 48.2083 106.726 50 102.726 50C98.2679 50 94.7367 48.1146 92.1325 44.3438C90.0908 41.3646 89.07 37.6562 89.07 33.2188C89.07 27.6562 90.4033 23.4062 93.07 20.4688C95.7575 17.5312 99.0908 16.0625 103.07 16.0625C107.174 16.0625 110.56 17.8646 113.226 21.4688V16.8125H121.445V46.5938C121.445 50.5104 121.122 53.4375 120.476 55.375C119.83 57.3125 118.924 58.8333 117.757 59.9375C116.591 61.0417 115.028 61.9062 113.07 62.5312C111.132 63.1562 108.674 63.4688 105.695 63.4688C100.07 63.4688 96.0804 62.5 93.7262 60.5625C91.3721 58.6458 90.195 56.2083 90.195 53.25C90.195 52.9583 90.2054 52.6042 90.2262 52.1875ZM98.07 32.7188C98.07 36.2396 98.7471 38.8229 100.101 40.4688C101.476 42.0938 103.164 42.9062 105.164 42.9062C107.31 42.9062 109.122 42.0729 110.601 40.4062C112.08 38.7188 112.82 36.2292 112.82 32.9375C112.82 29.5 112.112 26.9479 110.695 25.2812C109.278 23.6146 107.487 22.7812 105.32 22.7812C103.216 22.7812 101.476 23.6042 100.101 25.25C98.7471 26.875 98.07 29.3646 98.07 32.7188Z" fill="black"/>
<path d="M0.3125 35.0938L0.264117 34.5961L-0.243807 34.6455L-0.184062 35.1523L0.3125 35.0938ZM9.3125 34.2188L9.80465 34.1305L9.72324 33.6765L9.26412 33.7211L9.3125 34.2188ZM12.5938 40.875L12.2676 41.254L12.2699 41.256L12.5938 40.875ZM26.0312 41.125L26.3513 41.5091L26.3519 41.5087L26.0312 41.125ZM27.3438 33.9375L26.9554 34.2524L26.96 34.2582L26.9649 34.2638L27.3438 33.9375ZM24.0312 31.9375L24.1986 31.4663L24.1948 31.465L24.0312 31.9375ZM16.625 29.9375L16.7457 29.4523L16.7453 29.4522L16.625 29.9375ZM6.1875 25.4062L5.85378 25.7786L5.85388 25.7787L6.1875 25.4062ZM3.9375 9.65625L3.51886 9.38285L3.51818 9.38391L3.9375 9.65625ZM9.65625 5L9.46068 4.53983L9.45929 4.54043L9.65625 5ZM31.6562 7.1875L31.328 7.56463L31.3293 7.56579L31.6562 7.1875ZM36.25 17.2812L36.2719 17.7808L36.7669 17.759L36.7497 17.2639L36.25 17.2812ZM27 17.6875L26.5069 17.7704L26.5802 18.2064L27.0219 18.187L27 17.6875ZM24.4375 12.625L24.1236 13.0143L24.1305 13.0197L24.4375 12.625ZM12.2812 12.7188L12.5743 13.1239L12.575 13.1234L12.2812 12.7188ZM12.1875 18.3438L11.8657 18.7264L11.8661 18.7267L12.1875 18.3438ZM30.6562 24.7188L30.4207 25.1598L30.4258 25.1625L30.6562 24.7188ZM35.7188 29.375L35.292 29.6356L35.2953 29.6408L35.7188 29.375ZM29.1875 49.1562L29.3788 49.6182L29.3819 49.6169L29.1875 49.1562ZM5.875 46.8125L5.54773 47.1905L5.54919 47.1918L5.875 46.8125ZM0.360883 35.5914L9.36088 34.7164L9.26412 33.7211L0.264117 34.5961L0.360883 35.5914ZM8.82035 34.307C9.37406 37.395 10.5049 39.7367 12.2676 41.254L12.9199 40.496C11.391 39.18 10.3343 37.0841 9.80465 34.1305L8.82035 34.307ZM12.2699 41.256C14.0503 42.7693 16.416 43.5 19.3125 43.5V42.5C16.584 42.5 14.4705 41.8141 12.9176 40.494L12.2699 41.256ZM19.3125 43.5C22.3498 43.5 24.7248 42.8646 26.3513 41.5091L25.7112 40.7409C24.3377 41.8854 22.2335 42.5 19.3125 42.5V43.5ZM26.3519 41.5087C27.9644 40.1612 28.8125 38.5496 28.8125 36.6875H27.8125C27.8125 38.2004 27.1398 39.5471 25.7106 40.7413L26.3519 41.5087ZM28.8125 36.6875C28.8125 35.4966 28.4542 34.4608 27.7226 33.6112L26.9649 34.2638C27.525 34.9142 27.8125 35.7117 27.8125 36.6875H28.8125ZM27.7321 33.6226C27.0218 32.7465 25.8154 32.0407 24.1986 31.4663L23.8639 32.4087C25.4137 32.9593 26.4157 33.5868 26.9554 34.2524L27.7321 33.6226ZM24.1948 31.465C23.0861 31.0812 20.5939 30.4091 16.7457 29.4523L16.5043 30.4227C20.3645 31.3825 22.8098 32.0438 23.8677 32.41L24.1948 31.465ZM16.7453 29.4522C11.8068 28.2279 8.42698 26.7412 6.52112 25.0338L5.85388 25.7787C7.94802 27.6547 11.5265 29.1887 16.5047 30.4228L16.7453 29.4522ZM6.52122 25.0339C3.8095 22.6034 2.46875 19.6638 2.46875 16.1875H1.46875C1.46875 19.9612 2.9405 23.1674 5.85378 25.7786L6.52122 25.0339ZM2.46875 16.1875C2.46875 13.9541 3.09516 11.8712 4.35682 9.92859L3.51818 9.38391C2.15484 11.483 1.46875 13.7542 1.46875 16.1875H2.46875ZM4.35614 9.92964C5.6299 7.9792 7.45468 6.48752 9.85321 5.45957L9.45929 4.54043C6.89949 5.63748 4.91177 7.24997 3.51886 9.38286L4.35614 9.92964ZM9.85182 5.46017C12.2746 4.43049 15.2149 3.90625 18.6875 3.90625V2.90625C15.1185 2.90625 12.0379 3.44451 9.46068 4.53983L9.85182 5.46017ZM18.6875 3.90625C24.375 3.90625 28.5591 5.15433 31.328 7.56463L31.9845 6.81037C28.9617 4.17901 24.5 2.90625 18.6875 2.90625V3.90625ZM31.3293 7.56579C34.1303 9.98664 35.6088 13.215 35.7503 17.2986L36.7497 17.2639C36.5995 12.9308 35.0156 9.43003 31.9832 6.80921L31.3293 7.56579ZM36.2281 16.7817L26.9781 17.188L27.0219 18.187L36.2719 17.7808L36.2281 16.7817ZM27.4931 17.6046C27.0855 15.1803 26.1916 13.3559 24.7445 12.2303L24.1305 13.0197C25.3084 13.9358 26.1229 15.4864 26.5069 17.7704L27.4931 17.6046ZM24.7514 12.2358C23.3326 11.0917 21.2509 10.5625 18.5938 10.5625V11.5625C21.1449 11.5625 22.959 12.075 24.1236 13.0142L24.7514 12.2358ZM18.5938 10.5625C15.8445 10.5625 13.6234 11.1264 11.9875 12.3141L12.575 13.1234C13.9808 12.1027 15.968 11.5625 18.5938 11.5625V10.5625ZM11.9882 12.3136C10.8818 13.114 10.3125 14.2112 10.3125 15.5625H11.3125C11.3125 14.5388 11.7224 13.7401 12.5743 13.1239L11.9882 12.3136ZM10.3125 15.5625C10.3125 16.8102 10.8495 17.8719 11.8657 18.7264L12.5093 17.9611C11.6921 17.2739 11.3125 16.4815 11.3125 15.5625H10.3125ZM11.8661 18.7267C12.5198 19.2754 13.5892 19.7994 15.018 20.3141C16.4593 20.8334 18.3128 21.3593 20.5726 21.8929L20.8024 20.9196C18.5622 20.3907 16.749 19.8749 15.357 19.3734C13.9525 18.8673 13.0219 18.3913 12.5089 17.9608L11.8661 18.7267ZM20.5726 21.8929C25.0611 22.9527 28.3332 24.0451 30.4207 25.1598L30.8918 24.2777C28.6877 23.1007 25.3139 21.9848 20.8024 20.9196L20.5726 21.8929ZM30.4258 25.1625C32.516 26.2478 34.1337 27.7384 35.292 29.6355L36.1455 29.1145C34.8871 27.0533 33.1298 25.4397 30.8867 24.275L30.4258 25.1625ZM35.2953 29.6408C36.4632 31.5016 37.0625 33.8308 37.0625 36.6562H38.0625C38.0625 33.69 37.4326 31.1651 36.1422 29.1092L35.2953 29.6408ZM37.0625 36.6562C37.0625 39.1827 36.3623 41.5484 34.9532 43.7628L35.7968 44.2997C37.3043 41.9307 38.0625 39.3798 38.0625 36.6562H37.0625ZM34.9532 43.7628C33.553 45.963 31.5727 47.6073 28.9931 48.6956L29.3819 49.6169C32.1356 48.4552 34.2803 46.6828 35.7968 44.2997L34.9532 43.7628ZM28.9962 48.6943C26.4085 49.7658 23.1555 50.3125 19.2188 50.3125V51.3125C23.2403 51.3125 26.6332 50.7551 29.3788 49.6182L28.9962 48.6943ZM19.2188 50.3125C13.4975 50.3125 9.18296 48.9951 6.20081 46.4332L5.54919 47.1918C8.77538 49.9633 13.3566 51.3125 19.2188 51.3125V50.3125ZM6.20227 46.4345C3.21489 43.8481 1.40253 40.0694 0.809062 35.0352L-0.184062 35.1523C0.430808 40.3681 2.32678 44.4019 5.54773 47.1905L6.20227 46.4345ZM49.2837 26.9375L49.195 27.4296L49.6143 27.5052L49.7555 27.1032L49.2837 26.9375ZM41.315 25.5L40.8334 25.3655L40.6857 25.8946L41.2262 25.9921L41.315 25.5ZM45.94 18.375L45.652 17.9663L45.94 18.375ZM64.44 17.4688L64.2203 17.9179L64.2243 17.9198L64.44 17.4688ZM68.4712 21L68.0305 21.2363L68.0348 21.2439L68.4712 21ZM69.6587 28.8438L70.1587 28.8483V28.8438H69.6587ZM69.565 39.0938L69.065 39.0892V39.0938H69.565ZM69.9712 45.5625L69.4803 45.6578L69.4821 45.6663L69.9712 45.5625ZM71.565 50V50.5H72.3645L72.0146 49.7811L71.565 50ZM62.8775 50L62.4121 50.1828L62.5367 50.5H62.8775V50ZM62.0337 47.4062L61.5522 47.5411L61.5537 47.5459L62.0337 47.4062ZM61.7212 46.375L62.1894 46.1994L61.9209 45.4835L61.3727 46.0165L61.7212 46.375ZM43.3462 47.9688L43.0025 48.3318L43.0044 48.3336L43.3462 47.9688ZM41.7525 35.9375L42.1785 36.1992L42.1802 36.1965L41.7525 35.9375ZM45.5025 32.5625L45.7191 33.0132L45.7215 33.012L45.5025 32.5625ZM52.5025 30.5L52.4102 30.0086L52.4083 30.0089L52.5025 30.5ZM61.0337 28.3438L61.2278 28.8046L61.5337 28.6757V28.3438H61.0337ZM59.7837 23.875L59.4545 24.2513L59.4599 24.256L59.7837 23.875ZM51.4087 23.7188L51.6929 24.1303L51.6994 24.1256L51.4087 23.7188ZM61.0337 34.0625H61.5337V33.3688L60.8756 33.5882L61.0337 34.0625ZM50.9087 36.9375L50.6314 36.5215L50.6254 36.5255L50.6195 36.5296L50.9087 36.9375ZM58.5962 43L58.8897 43.4049L58.895 43.4009L58.5962 43ZM60.69 40.0938L60.2118 39.9476L60.2099 39.9541L60.69 40.0938ZM49.3725 26.4454L41.4038 25.0079L41.2262 25.9921L49.195 27.4296L49.3725 26.4454ZM41.7966 25.6345C42.6692 22.5092 44.156 20.244 46.228 18.7837L45.652 17.9663C43.349 19.5893 41.7525 22.0741 40.8334 25.3655L41.7966 25.6345ZM46.228 18.7837C48.2939 17.3278 51.4228 16.5625 55.69 16.5625V15.5625C51.3322 15.5625 47.9611 16.3389 45.652 17.9663L46.228 18.7837ZM55.69 16.5625C59.5839 16.5625 62.4077 17.0313 64.2203 17.9179L64.6597 17.0196C62.6389 16.0312 59.6294 15.5625 55.69 15.5625V16.5625ZM64.2243 17.9198C66.074 18.8045 67.3233 19.9173 68.0306 21.2363L68.9119 20.7637C68.0775 19.2077 66.6393 17.9664 64.6557 17.0177L64.2243 17.9198ZM68.0348 21.2439C68.3887 21.8772 68.6736 22.8178 68.8675 24.0983C69.0604 25.3726 69.1587 26.9526 69.1587 28.8438H70.1587C70.1587 26.9224 70.0591 25.2888 69.8562 23.9486C69.6543 22.6145 69.3455 21.5395 68.9077 20.7561L68.0348 21.2439ZM69.1588 28.8392L69.065 39.0892L70.065 39.0983L70.1587 28.8483L69.1588 28.8392ZM69.065 39.0938C69.065 42.0164 69.2 44.2125 69.4804 45.6577L70.4621 45.4673C70.2008 44.1208 70.065 42.0044 70.065 39.0938H69.065ZM69.4821 45.6663C69.7841 47.0896 70.3311 48.6077 71.1154 50.2189L72.0146 49.7811C71.2573 48.2256 70.7418 46.7854 70.4604 45.4587L69.4821 45.6663ZM71.565 49.5H62.8775V50.5H71.565V49.5ZM63.3429 49.8172C63.1222 49.2554 62.846 48.4083 62.5138 47.2666L61.5537 47.5459C61.8882 48.6958 62.1745 49.5779 62.4121 50.1828L63.3429 49.8172ZM62.5152 47.2714C62.3704 46.7543 62.2607 46.3896 62.1894 46.1994L61.2531 46.5506C61.3068 46.6937 61.4054 47.0166 61.5523 47.5411L62.5152 47.2714ZM61.3727 46.0165C59.9113 47.4374 58.3576 48.4942 56.7125 49.1964L57.105 50.1161C58.8766 49.36 60.5312 48.2293 62.0698 46.7335L61.3727 46.0165ZM56.7125 49.1964C55.0689 49.8979 53.313 50.25 51.44 50.25V51.25C53.442 51.25 55.332 50.8729 57.105 50.1161L56.7125 49.1964ZM51.44 50.25C48.1159 50.25 45.5522 49.3503 43.6881 47.6039L43.0044 48.3336C45.0986 50.2956 47.9308 51.25 51.44 51.25V50.25ZM43.69 47.6057C41.8369 45.8512 40.9087 43.6413 40.9087 40.9375H39.9087C39.9087 43.9004 40.9389 46.378 43.0025 48.3318L43.69 47.6057ZM40.9087 40.9375C40.9087 39.1458 41.3356 37.5714 42.1785 36.1992L41.3265 35.6758C40.3777 37.2203 39.9087 38.9792 39.9087 40.9375H40.9087ZM42.1802 36.1965C43.0242 34.8029 44.1997 33.7433 45.7191 33.0132L45.2859 32.1118C43.597 32.9234 42.2725 34.1138 41.3248 35.6785L42.1802 36.1965ZM45.7215 33.012C47.2886 32.2485 49.5722 31.5711 52.5967 30.9911L52.4083 30.0089C49.3495 30.5956 46.9664 31.2931 45.2835 32.113L45.7215 33.012ZM52.5948 30.9914C56.6984 30.2207 59.5899 29.4942 61.2278 28.8046L60.8397 27.8829C59.3109 28.5267 56.5149 29.2377 52.4102 30.0086L52.5948 30.9914ZM61.5337 28.3438V27.4688H60.5337V28.3438H61.5337ZM61.5337 27.4688C61.5337 25.7144 61.1018 24.3391 60.1076 23.494L59.4599 24.256C60.1324 24.8275 60.5337 25.8481 60.5337 27.4688H61.5337ZM60.113 23.4987C59.6125 23.0608 58.9244 22.7606 58.092 22.5676C57.2564 22.3739 56.2444 22.2812 55.065 22.2812V23.2812C56.1981 23.2812 57.1288 23.3709 57.8662 23.5418C58.6066 23.7134 59.1216 23.96 59.4545 24.2513L60.113 23.4987ZM55.065 22.2812C53.4435 22.2812 52.1085 22.6045 51.1181 23.3119L51.6994 24.1256C52.459 23.583 53.5615 23.2812 55.065 23.2812V22.2812ZM51.1247 23.3073C50.1273 23.9959 49.3711 25.1806 48.812 26.7718L49.7555 27.1032C50.2798 25.6111 50.9402 24.6499 51.6928 24.1302L51.1247 23.3073ZM60.8756 33.5882C59.7785 33.9539 58.0201 34.3971 55.5855 34.9173L55.7945 35.8952C58.2349 35.3738 60.039 34.9211 61.1919 34.5368L60.8756 33.5882ZM55.5855 34.9173C54.3576 35.1797 53.3323 35.4415 52.5141 35.7035C51.7039 35.963 51.065 36.2324 50.6314 36.5215L51.1861 37.3535C51.5025 37.1426 52.0355 36.9068 52.8191 36.6559C53.5945 36.4075 54.5849 36.1537 55.7945 35.8952L55.5855 34.9173ZM50.6195 36.5296C49.3604 37.4224 48.69 38.5972 48.69 40.0312H49.69C49.69 38.9653 50.1654 38.0776 51.198 37.3454L50.6195 36.5296ZM48.69 40.0312C48.69 41.4013 49.2072 42.5909 50.2155 43.5763L50.9145 42.8612C50.0895 42.0549 49.69 41.1195 49.69 40.0312H48.69ZM50.2155 43.5763C51.2358 44.5735 52.5327 45.0625 54.065 45.0625V44.0625C52.7639 44.0625 51.7275 43.6557 50.9145 42.8612L50.2155 43.5763ZM54.065 45.0625C55.7663 45.0625 57.3776 44.5005 58.8896 43.4049L58.3029 42.5951C56.9399 43.5828 55.5303 44.0625 54.065 44.0625V45.0625ZM58.895 43.4009C60.0346 42.5518 60.803 41.4953 61.1701 40.2334L60.2099 39.9541C59.9103 40.9839 59.2829 41.8649 58.2975 42.5991L58.895 43.4009ZM61.1682 40.2399C61.4222 39.4086 61.5337 37.9098 61.5337 35.8125H60.5337C60.5337 37.9235 60.4162 39.2789 60.2118 39.9476L61.1682 40.2399ZM61.5337 35.8125V34.0625H60.5337V35.8125H61.5337ZM75.7862 12.3125H75.2862V12.8125H75.7862V12.3125ZM75.7862 4.1875V3.6875H75.2862V4.1875H75.7862ZM84.5675 4.1875H85.0675V3.6875H84.5675V4.1875ZM84.5675 12.3125V12.8125H85.0675V12.3125H84.5675ZM75.7862 50H75.2862V50.5H75.7862V50ZM75.7862 16.8125V16.3125H75.2862V16.8125H75.7862ZM84.5675 16.8125H85.0675V16.3125H84.5675V16.8125ZM84.5675 50V50.5H85.0675V50H84.5675ZM76.2862 12.3125V4.1875H75.2862V12.3125H76.2862ZM75.7862 4.6875H84.5675V3.6875H75.7862V4.6875ZM84.0675 4.1875V12.3125H85.0675V4.1875H84.0675ZM84.5675 11.8125H75.7862V12.8125H84.5675V11.8125ZM76.2862 50V16.8125H75.2862V50H76.2862ZM75.7862 17.3125H84.5675V16.3125H75.7862V17.3125ZM84.0675 16.8125V50H85.0675V16.8125H84.0675ZM84.5675 49.5H75.7862V50.5H84.5675V49.5ZM90.2262 52.1875L90.2866 51.6911L89.7537 51.6264L89.7269 52.1625L90.2262 52.1875ZM100.257 53.4062L100.752 53.3355L100.698 52.9561L100.318 52.9099L100.257 53.4062ZM101.414 55.8125L101.714 55.4124L101.707 55.4075L101.414 55.8125ZM110.507 55.7188L110.252 55.289L110.25 55.29L110.507 55.7188ZM112.257 53.5L112.724 53.6808L112.726 53.6741L112.257 53.5ZM112.664 44.625H113.164V43.0964L112.26 44.3295L112.664 44.625ZM92.1325 44.3438L91.7201 44.6264L91.7211 44.6279L92.1325 44.3438ZM93.07 20.4688L92.7011 20.1312L92.6998 20.1327L93.07 20.4688ZM113.226 21.4688L112.824 21.7661L113.726 22.9852V21.4688H113.226ZM113.226 16.8125V16.3125H112.726V16.8125H113.226ZM121.445 16.8125H121.945V16.3125H121.445V16.8125ZM117.757 59.9375L118.101 60.3006L117.757 59.9375ZM113.07 62.5312L112.918 62.0549L112.916 62.0554L113.07 62.5312ZM93.7262 60.5625L94.044 60.1764L94.0419 60.1748L93.7262 60.5625ZM100.101 40.4688L99.7151 40.7865L99.7196 40.7917L100.101 40.4688ZM110.601 40.4062L110.975 40.7381L110.977 40.7358L110.601 40.4062ZM100.101 25.25L99.7175 24.9294L99.7171 24.9299L100.101 25.25ZM90.1659 52.6839L100.197 53.9026L100.318 52.9099L90.2866 51.6911L90.1659 52.6839ZM99.7625 53.477C99.9375 54.7021 100.357 55.6647 101.12 56.2175L101.707 55.4075C101.262 55.0853 100.911 54.4437 100.752 53.3355L99.7625 53.477ZM101.114 56.2125C102.077 56.9346 103.521 57.25 105.351 57.25V56.25C103.598 56.25 102.418 55.9404 101.714 55.4125L101.114 56.2125ZM105.351 57.25C107.677 57.25 109.504 56.9041 110.765 56.1475L110.25 55.29C109.22 55.9084 107.609 56.25 105.351 56.25V57.25ZM110.763 56.1485C111.65 55.6213 112.297 54.7821 112.724 53.6808L111.791 53.3192C111.427 54.2595 110.907 54.8995 110.252 55.289L110.763 56.1485ZM112.726 53.6741C113.032 52.8507 113.164 51.4229 113.164 49.4688H112.164C112.164 51.4313 112.025 52.691 111.789 53.3259L112.726 53.6741ZM113.164 49.4688V44.625H112.164V49.4688H113.164ZM112.26 44.3295C109.718 47.8007 106.548 49.5 102.726 49.5V50.5C106.905 50.5 110.36 48.6159 113.067 44.9205L112.26 44.3295ZM102.726 49.5C98.4376 49.5 95.0578 47.6998 92.5439 44.0596L91.7211 44.6279C94.4155 48.5294 98.0982 50.5 102.726 50.5V49.5ZM92.5449 44.0611C90.5722 41.1825 89.57 37.5787 89.57 33.2188H88.57C88.57 37.7338 89.6095 41.5467 91.7201 44.6264L92.5449 44.0611ZM89.57 33.2188C89.57 27.7306 90.8855 23.619 93.4402 20.8048L92.6998 20.1327C89.9212 23.1935 88.57 27.5819 88.57 33.2188H89.57ZM93.4389 20.8063C96.0317 17.9722 99.2312 16.5625 103.07 16.5625V15.5625C98.9504 15.5625 95.4833 17.0903 92.7011 20.1312L93.4389 20.8063ZM103.07 16.5625C106.999 16.5625 110.242 18.2758 112.824 21.7661L113.628 21.1714C110.877 17.4534 107.349 15.5625 103.07 15.5625V16.5625ZM113.726 21.4688V16.8125H112.726V21.4688H113.726ZM113.226 17.3125H121.445V16.3125H113.226V17.3125ZM120.945 16.8125V46.5938H121.945V16.8125H120.945ZM120.945 46.5938C120.945 50.4965 120.622 53.3579 120.002 55.2169L120.951 55.5331C121.623 53.5171 121.945 50.5243 121.945 46.5938H120.945ZM120.002 55.2169C119.375 57.097 118.507 58.54 117.414 59.5744L118.101 60.3006C119.342 59.1266 120.286 57.528 120.951 55.5331L120.002 55.2169ZM117.414 59.5744C116.315 60.6145 114.824 61.4466 112.918 62.0549L113.222 63.0076C115.233 62.3659 116.867 61.4688 118.101 60.3006L117.414 59.5744ZM112.916 62.0554C111.046 62.6588 108.644 62.9688 105.695 62.9688V63.9688C108.704 63.9688 111.219 63.6537 113.224 63.0071L112.916 62.0554ZM105.695 62.9688C100.1 62.9688 96.2593 61.9997 94.044 60.1764L93.4085 60.9486C95.9015 63.0003 100.04 63.9688 105.695 63.9688V62.9688ZM94.0419 60.1748C91.8009 58.3502 90.695 56.0534 90.695 53.25H89.695C89.695 56.3632 90.9433 58.9415 93.4106 60.9502L94.0419 60.1748ZM90.695 53.25C90.695 52.9693 90.705 52.624 90.7256 52.2125L89.7269 52.1625C89.7058 52.5843 89.695 52.9473 89.695 53.25H90.695ZM97.57 32.7188C97.57 36.2857 98.2527 39.009 99.7151 40.7864L100.487 40.1511C99.2415 38.6369 98.57 36.1935 98.57 32.7188H97.57ZM99.7196 40.7917C101.183 42.5208 103.006 43.4062 105.164 43.4062V42.4062C103.321 42.4062 101.77 41.6667 100.483 40.1458L99.7196 40.7917ZM105.164 43.4062C107.459 43.4062 109.405 42.507 110.975 40.7381L110.227 40.0744C108.839 41.6388 107.16 42.4062 105.164 42.4062V43.4062ZM110.977 40.7358C112.567 38.9227 113.32 36.2951 113.32 32.9375H112.32C112.32 36.1633 111.594 38.5148 110.225 40.0767L110.977 40.7358ZM113.32 32.9375C113.32 29.4456 112.603 26.7537 111.076 24.9574L110.314 25.6051C111.621 27.1422 112.32 29.5544 112.32 32.9375H113.32ZM111.076 24.9574C109.565 23.1802 107.635 22.2812 105.32 22.2812V23.2812C107.338 23.2812 108.991 24.0489 110.314 25.6051L111.076 24.9574ZM105.32 22.2812C103.064 22.2812 101.185 23.1724 99.7175 24.9294L100.485 25.5706C101.767 24.0359 103.367 23.2812 105.32 23.2812V22.2812ZM99.7171 24.9299C98.2552 26.6843 97.57 29.3121 97.57 32.7188H98.57C98.57 29.417 99.239 27.0657 100.485 25.5701L99.7171 24.9299Z" fill="black"/>
<path d="M175.594 50V41.2188H184.375V50H175.594ZM190.628 50V4.1875H199.878V50H190.628ZM236.286 50H227.505V33.0625C227.505 29.4792 227.318 27.1667 226.943 26.125C226.568 25.0625 225.953 24.2396 225.099 23.6562C224.265 23.0729 223.255 22.7812 222.068 22.7812C220.547 22.7812 219.182 23.1979 217.974 24.0312C216.765 24.8646 215.932 25.9688 215.474 27.3438C215.036 28.7188 214.818 31.2604 214.818 34.9688V50H206.036V16.8125H214.193V21.6875C217.088 17.9375 220.734 16.0625 225.13 16.0625C227.068 16.0625 228.838 16.4167 230.443 17.125C232.047 17.8125 233.255 18.6979 234.068 19.7812C234.901 20.8646 235.474 22.0938 235.786 23.4688C236.12 24.8438 236.286 26.8125 236.286 29.375V50ZM238.82 16.8125H243.695V14.3125C243.695 11.5208 243.987 9.4375 244.57 8.0625C245.174 6.6875 246.268 5.57292 247.851 4.71875C249.455 3.84375 251.476 3.40625 253.914 3.40625C256.414 3.40625 258.862 3.78125 261.257 4.53125L260.07 10.6562C258.674 10.3229 257.33 10.1562 256.039 10.1562C254.768 10.1562 253.851 10.4583 253.289 11.0625C252.747 11.6458 252.476 12.7812 252.476 14.4688V16.8125H259.039V23.7188H252.476V50H243.695V23.7188H238.82V16.8125ZM259.385 32.9375C259.385 30.0208 260.104 27.1979 261.541 24.4688C262.979 21.7396 265.01 19.6562 267.635 18.2188C270.281 16.7812 273.229 16.0625 276.479 16.0625C281.5 16.0625 285.614 17.6979 288.823 20.9688C292.031 24.2188 293.635 28.3333 293.635 33.3125C293.635 38.3333 292.01 42.5 288.76 45.8125C285.531 49.1042 281.458 50.75 276.541 50.75C273.5 50.75 270.593 50.0625 267.823 48.6875C265.073 47.3125 262.979 45.3021 261.541 42.6562C260.104 39.9896 259.385 36.75 259.385 32.9375ZM268.385 33.4062C268.385 36.6979 269.166 39.2188 270.729 40.9688C272.291 42.7188 274.218 43.5938 276.51 43.5938C278.802 43.5938 280.718 42.7188 282.26 40.9688C283.823 39.2188 284.604 36.6771 284.604 33.3438C284.604 30.0938 283.823 27.5938 282.26 25.8438C280.718 24.0938 278.802 23.2188 276.51 23.2188C274.218 23.2188 272.291 24.0938 270.729 25.8438C269.166 27.5938 268.385 30.1146 268.385 33.4062Z" fill="black"/>
<path d="M175.594 50H175.094V50.5H175.594V50ZM175.594 41.2188V40.7188H175.094V41.2188H175.594ZM184.375 41.2188H184.875V40.7188H184.375V41.2188ZM184.375 50V50.5H184.875V50H184.375ZM176.094 50V41.2188H175.094V50H176.094ZM175.594 41.7188H184.375V40.7188H175.594V41.7188ZM183.875 41.2188V50H184.875V41.2188H183.875ZM184.375 49.5H175.594V50.5H184.375V49.5ZM190.628 50H190.128V50.5H190.628V50ZM190.628 4.1875V3.6875H190.128V4.1875H190.628ZM199.878 4.1875H200.378V3.6875H199.878V4.1875ZM199.878 50V50.5H200.378V50H199.878ZM191.128 50V4.1875H190.128V50H191.128ZM190.628 4.6875H199.878V3.6875H190.628V4.6875ZM199.378 4.1875V50H200.378V4.1875H199.378ZM199.878 49.5H190.628V50.5H199.878V49.5ZM236.286 50V50.5H236.786V50H236.286ZM227.505 50H227.005V50.5H227.505V50ZM226.943 26.125L226.471 26.2914L226.472 26.2944L226.943 26.125ZM225.099 23.6562L224.812 24.0659L224.817 24.0692L225.099 23.6562ZM215.474 27.3438L214.999 27.1856L214.997 27.1921L215.474 27.3438ZM214.818 50V50.5H215.318V50H214.818ZM206.036 50H205.536V50.5H206.036V50ZM206.036 16.8125V16.3125H205.536V16.8125H206.036ZM214.193 16.8125H214.693V16.3125H214.193V16.8125ZM214.193 21.6875H213.693V23.153L214.588 21.9931L214.193 21.6875ZM230.443 17.125L230.241 17.5824L230.246 17.5846L230.443 17.125ZM234.068 19.7812L233.667 20.0813L233.671 20.0861L234.068 19.7812ZM235.786 23.4688L235.299 23.5796L235.3 23.5866L235.786 23.4688ZM236.286 49.5H227.505V50.5H236.286V49.5ZM228.005 50V33.0625H227.005V50H228.005ZM228.005 33.0625C228.005 31.2637 227.958 29.7751 227.863 28.6002C227.768 27.4371 227.624 26.5425 227.413 25.9556L226.472 26.2944C226.636 26.7491 226.773 27.5317 226.866 28.681C226.958 29.8187 227.005 31.2779 227.005 33.0625H228.005ZM227.414 25.9586C227.007 24.8053 226.331 23.892 225.381 23.2433L224.817 24.0692C225.575 24.5871 226.128 25.3197 226.471 26.2914L227.414 25.9586ZM225.385 23.2466C224.455 22.5951 223.34 22.2812 222.068 22.2812V23.2812C223.17 23.2812 224.076 23.5507 224.812 24.0659L225.385 23.2466ZM222.068 22.2812C220.449 22.2812 218.985 22.7266 217.69 23.6196L218.258 24.4429C219.379 23.6693 220.644 23.2812 222.068 23.2812V22.2812ZM217.69 23.6196C216.393 24.5137 215.493 25.7063 214.999 27.1856L215.948 27.5019C216.372 26.2312 217.137 25.2154 218.258 24.4429L217.69 23.6196ZM214.997 27.1921C214.533 28.6503 214.318 31.265 214.318 34.9688H215.318C215.318 31.2558 215.539 28.7872 215.95 27.4954L214.997 27.1921ZM214.318 34.9688V50H215.318V34.9688H214.318ZM214.818 49.5H206.036V50.5H214.818V49.5ZM206.536 50V16.8125H205.536V50H206.536ZM206.036 17.3125H214.193V16.3125H206.036V17.3125ZM213.693 16.8125V21.6875H214.693V16.8125H213.693ZM214.588 21.9931C217.398 18.3547 220.902 16.5625 225.13 16.5625V15.5625C220.566 15.5625 216.779 17.5203 213.797 21.3819L214.588 21.9931ZM225.13 16.5625C227.005 16.5625 228.706 16.905 230.241 17.5824L230.644 16.6676C228.97 15.9284 227.13 15.5625 225.13 15.5625V16.5625ZM230.246 17.5846C231.792 18.2473 232.921 19.0854 233.668 20.0813L234.468 19.4812C233.589 18.3104 232.301 17.3777 230.639 16.6654L230.246 17.5846ZM233.671 20.0861C234.459 21.1103 235.002 22.2728 235.299 23.5796L236.274 23.3579C235.946 21.9147 235.343 20.6189 234.464 19.4764L233.671 20.0861ZM235.3 23.5866C235.62 24.9037 235.786 26.8257 235.786 29.375H236.786C236.786 26.7993 236.62 24.7838 236.272 23.3509L235.3 23.5866ZM235.786 29.375V50H236.786V29.375H235.786ZM238.82 16.8125V16.3125H238.32V16.8125H238.82ZM243.695 16.8125V17.3125H244.195V16.8125H243.695ZM244.57 8.0625L244.112 7.86135L244.11 7.86723L244.57 8.0625ZM247.851 4.71875L248.089 5.1588L248.091 5.1577L247.851 4.71875ZM261.257 4.53125L261.748 4.62642L261.833 4.18762L261.407 4.05408L261.257 4.53125ZM260.07 10.6562L259.954 11.1426L260.462 11.2638L260.561 10.7514L260.07 10.6562ZM253.289 11.0625L252.923 10.7218L252.922 10.7223L253.289 11.0625ZM252.476 16.8125H251.976V17.3125H252.476V16.8125ZM259.039 16.8125H259.539V16.3125H259.039V16.8125ZM259.039 23.7188V24.2188H259.539V23.7188H259.039ZM252.476 23.7188V23.2188H251.976V23.7188H252.476ZM252.476 50V50.5H252.976V50H252.476ZM243.695 50H243.195V50.5H243.695V50ZM243.695 23.7188H244.195V23.2188H243.695V23.7188ZM238.82 23.7188H238.32V24.2188H238.82V23.7188ZM238.82 17.3125H243.695V16.3125H238.82V17.3125ZM244.195 16.8125V14.3125H243.195V16.8125H244.195ZM244.195 14.3125C244.195 11.5398 244.487 9.53833 245.03 8.25777L244.11 7.86723C243.486 9.33667 243.195 11.5019 243.195 14.3125H244.195ZM245.028 8.26364C245.579 7.00965 246.583 5.97091 248.089 5.1588L247.614 4.2787C245.953 5.17493 244.77 6.36535 244.112 7.86136L245.028 8.26364ZM248.091 5.1577C249.601 4.33391 251.533 3.90625 253.914 3.90625V2.90625C251.419 2.90625 249.31 3.35359 247.612 4.2798L248.091 5.1577ZM253.914 3.90625C256.363 3.90625 258.76 4.27349 261.108 5.00842L261.407 4.05408C258.963 3.28901 256.465 2.90625 253.914 2.90625V3.90625ZM260.767 4.43608L259.579 10.5611L260.561 10.7514L261.748 4.62642L260.767 4.43608ZM260.186 10.1699C258.756 9.8285 257.374 9.65625 256.039 9.65625V10.6562C257.287 10.6562 258.592 10.8173 259.954 11.1426L260.186 10.1699ZM256.039 9.65625C254.703 9.65625 253.621 9.97223 252.923 10.7218L253.655 11.4032C254.082 10.9444 254.833 10.6562 256.039 10.6562V9.65625ZM252.922 10.7223C252.572 11.0998 252.34 11.6205 252.193 12.2356C252.046 12.854 251.976 13.6016 251.976 14.4688H252.976C252.976 13.6484 253.042 12.9846 253.166 12.4676C253.29 11.9473 253.464 11.6085 253.655 11.4027L252.922 10.7223ZM251.976 14.4688V16.8125H252.976V14.4688H251.976ZM252.476 17.3125H259.039V16.3125H252.476V17.3125ZM258.539 16.8125V23.7188H259.539V16.8125H258.539ZM259.039 23.2188H252.476V24.2188H259.039V23.2188ZM251.976 23.7188V50H252.976V23.7188H251.976ZM252.476 49.5H243.695V50.5H252.476V49.5ZM244.195 50V23.7188H243.195V50H244.195ZM243.695 23.2188H238.82V24.2188H243.695V23.2188ZM239.32 23.7188V16.8125H238.32V23.7188H239.32ZM267.635 18.2188L267.396 17.7794L267.395 17.7802L267.635 18.2188ZM288.823 20.9688L288.466 21.3189L288.467 21.32L288.823 20.9688ZM288.76 45.8125L288.403 45.4623L288.403 45.4624L288.76 45.8125ZM267.823 48.6875L267.599 49.1347L267.6 49.1354L267.823 48.6875ZM261.541 42.6562L261.101 42.8935L261.102 42.8949L261.541 42.6562ZM282.26 40.9688L281.887 40.6357L281.885 40.6382L282.26 40.9688ZM282.26 25.8438L281.885 26.1743L281.887 26.1768L282.26 25.8438ZM259.885 32.9375C259.885 30.1067 260.582 27.3634 261.984 24.7018L261.099 24.2357C259.626 27.0325 258.885 29.935 258.885 32.9375H259.885ZM261.984 24.7018C263.377 22.0567 265.339 20.0461 267.875 18.6573L267.395 17.7802C264.681 19.2664 262.581 21.4225 261.099 24.2357L261.984 24.7018ZM267.874 18.6581C270.441 17.2635 273.305 16.5625 276.479 16.5625V15.5625C273.152 15.5625 270.121 16.299 267.396 17.7794L267.874 18.6581ZM276.479 16.5625C281.38 16.5625 285.361 18.1536 288.466 21.3189L289.179 20.6186C285.868 17.2422 281.62 15.5625 276.479 15.5625V16.5625ZM288.467 21.32C291.574 24.4675 293.135 28.4518 293.135 33.3125H294.135C294.135 28.2149 292.488 23.97 289.178 20.6175L288.467 21.32ZM293.135 33.3125C293.135 38.2142 291.553 42.2514 288.403 45.4623L289.117 46.1627C292.467 42.7486 294.135 38.4525 294.135 33.3125H293.135ZM288.403 45.4624C285.275 48.6513 281.334 50.25 276.541 50.25V51.25C281.582 51.25 285.787 49.557 289.117 46.1626L288.403 45.4624ZM276.541 50.25C273.578 50.25 270.748 49.5809 268.045 48.2396L267.6 49.1354C270.439 50.5441 273.421 51.25 276.541 51.25V50.25ZM268.046 48.2403C265.386 46.91 263.368 44.9714 261.981 42.4176L261.102 42.8949C262.589 45.6327 264.759 47.715 267.599 49.1347L268.046 48.2403ZM261.981 42.419C260.592 39.8417 259.885 36.6882 259.885 32.9375H258.885C258.885 36.8118 259.615 40.1375 261.101 42.8935L261.981 42.419ZM267.885 33.4062C267.885 36.7714 268.684 39.429 270.356 41.3018L271.102 40.6357C269.649 39.0085 268.885 36.6245 268.885 33.4062H267.885ZM270.356 41.3018C272.011 43.1551 274.072 44.0938 276.51 44.0938V43.0938C274.365 43.0938 272.572 42.2824 271.102 40.6357L270.356 41.3018ZM276.51 44.0938C278.948 44.0938 281.001 43.1548 282.635 41.2993L281.885 40.6382C280.436 42.2827 278.655 43.0938 276.51 43.0938V44.0938ZM282.633 41.3018C284.306 39.428 285.104 36.7486 285.104 33.3438H284.104C284.104 36.6056 283.339 39.0095 281.887 40.6357L282.633 41.3018ZM285.104 33.3438C285.104 30.0183 284.304 27.3825 282.633 25.5107L281.887 26.1768C283.341 27.805 284.104 30.1692 284.104 33.3438H285.104ZM282.635 25.5132C281.001 23.6577 278.948 22.7188 276.51 22.7188V23.7188C278.655 23.7188 280.436 24.5298 281.885 26.1743L282.635 25.5132ZM276.51 22.7188C274.072 22.7188 272.011 23.6574 270.356 25.5107L271.102 26.1768C272.572 24.5301 274.365 23.7188 276.51 23.7188V22.7188ZM270.356 25.5107C268.684 27.3835 267.885 30.0411 267.885 33.4062H268.885C268.885 30.188 269.649 27.804 271.102 26.1768L270.356 25.5107Z" fill="black"/>
<ellipse cx="150" cy="25" rx="24" ry="25" fill="black"/>
<ellipse cx="150" cy="26" rx="23" ry="9" fill="white"/>
<path fill-rule="evenodd" clip-rule="evenodd" d="M134.249 21.3249C133.485 22.3295 133.055 23.5285 133.087 24.8066C133.173 28.2127 136.512 30.8912 140.544 30.7893C143.638 30.7111 146.242 29.0188 147.247 26.6969L134.249 21.3249Z" fill="black"/>
<path fill-rule="evenodd" clip-rule="evenodd" d="M165.097 21.3249C165.861 22.3295 166.291 23.5285 166.259 24.8066C166.173 28.2127 162.834 30.8912 158.802 30.7893C155.708 30.7111 153.104 29.0188 152.099 26.6969L165.097 21.3249Z" fill="black"/>
</svg>
