<svg width="16" height="16" viewBox="0 0 16 16" fill="none" xmlns="http://www.w3.org/2000/svg">
<circle cx="8" cy="8" r="8" fill="black"/>
<ellipse cx="8" cy="7.5" rx="7" ry="3.5" fill="white"/>
<mask id="path-3-inside-1_0_1" fill="white">
<path fill-rule="evenodd" clip-rule="evenodd" d="M12.9153 6.05123C13.0306 6.49708 13.0048 7.00131 12.8099 7.48431C12.3692 8.57656 11.2305 9.1467 10.2666 8.75776C9.76789 8.55654 9.41368 8.13803 9.24897 7.62967L12.9153 6.05123Z"/>
</mask>
<path fill-rule="evenodd" clip-rule="evenodd" d="M12.9153 6.05123C13.0306 6.49708 13.0048 7.00131 12.8099 7.48431C12.3692 8.57656 11.2305 9.1467 10.2666 8.75776C9.76789 8.55654 9.41368 8.13803 9.24897 7.62967L12.9153 6.05123Z" fill="black"/>
<path d="M12.9153 6.05123L12.8758 5.95938L12.9829 5.91325L13.0121 6.02621L12.9153 6.05123ZM9.24897 7.62968L9.15384 7.6605L9.12576 7.57385L9.20943 7.53783L9.24897 7.62968ZM12.7172 7.4469C12.9042 6.98343 12.9283 6.50108 12.8185 6.07626L13.0121 6.02621C13.1328 6.49309 13.1054 7.01919 12.9026 7.52174L12.7172 7.4469ZM10.304 8.66504C11.2061 9.02905 12.2926 8.49916 12.7172 7.4469L12.9026 7.52174C12.4458 8.65397 11.2548 9.26437 10.2292 8.85051L10.304 8.66504ZM9.3441 7.59885C9.50084 8.0826 9.83605 8.47622 10.304 8.66504L10.2292 8.85051C9.69974 8.63688 9.32653 8.19347 9.15384 7.6605L9.3441 7.59885ZM9.20943 7.53783L12.8758 5.95938L12.9549 6.14308L9.28851 7.72152L9.20943 7.53783Z" fill="black" mask="url(#path-3-inside-1_0_1)"/>
<mask id="path-5-inside-2_0_1" fill="white">
<path fill-rule="evenodd" clip-rule="evenodd" d="M3.40663 6.05123C3.29138 6.49708 3.31715 7.00131 3.51205 7.48431C3.95277 8.57656 5.09145 9.1467 6.05536 8.75776C6.55405 8.55654 6.90826 8.13803 7.07298 7.62967L3.40663 6.05123Z"/>
</mask>
<path fill-rule="evenodd" clip-rule="evenodd" d="M3.40663 6.05123C3.29138 6.49708 3.31715 7.00131 3.51205 7.48431C3.95277 8.57656 5.09145 9.1467 6.05536 8.75776C6.55405 8.55654 6.90826 8.13803 7.07298 7.62967L3.40663 6.05123Z" fill="black"/>
<path d="M3.40663 6.05123L3.44617 5.95938L3.33901 5.91325L3.30981 6.02621L3.40663 6.05123ZM7.07298 7.62968L7.16811 7.6605L7.19618 7.57385L7.11252 7.53783L7.07298 7.62968ZM3.60478 7.4469C3.41777 6.98343 3.39364 6.50108 3.50345 6.07626L3.30981 6.02621C3.18913 6.49309 3.21653 7.01919 3.41931 7.52174L3.60478 7.4469ZM6.01794 8.66504C5.1158 9.02905 4.02937 8.49916 3.60478 7.4469L3.41931 7.52174C3.87617 8.65397 5.0671 9.26437 6.09278 8.85051L6.01794 8.66504ZM6.97785 7.59885C6.8211 8.0826 6.48589 8.47622 6.01794 8.66504L6.09278 8.85051C6.62221 8.63688 6.99542 8.19347 7.16811 7.6605L6.97785 7.59885ZM7.11252 7.53783L3.44617 5.95938L3.36709 6.14308L7.03343 7.72152L7.11252 7.53783Z" fill="black" mask="url(#path-5-inside-2_0_1)"/>
</svg>
